<svg xmlns="http://www.w3.org/2000/svg" version="1.1" xmlns:xlink="http://www.w3.org/1999/xlink" xmlns:svgjs="http://svgjs.dev/svgjs" width="2000" height="282" viewBox="0 0 2000 282"><g transform="matrix(1,0,0,1,-1.2121212121212466,0.6966135031930776)"><svg viewBox="0 0 396 56" data-background-color="#000000" preserveAspectRatio="xMidYMid meet" height="282" width="2000" xmlns="http://www.w3.org/2000/svg" xmlns:xlink="http://www.w3.org/1999/xlink"><g id="tight-bounds" transform="matrix(1,0,0,1,0.2400000000000091,-0.138334596378769)"><svg viewBox="0 0 395.52 56.27666919275752" height="56.27666919275752" width="395.52"><g><svg viewBox="0 0 519.4716134627556 73.91315773126897" height="56.27666919275752" width="395.52"><g transform="matrix(1,0,0,1,0,10.215204867346145)"><svg viewBox="0 0 395.52000000000004 53.48274799657668" height="53.48274799657668" width="395.52000000000004"><g id="textblocktransform"><svg viewBox="0 0 395.52000000000004 53.48274799657668" height="53.48274799657668" width="395.52000000000004" id="textblock"><g><svg viewBox="0 0 395.52000000000004 53.48274799657668" height="53.48274799657668" width="395.52000000000004"><g transform="matrix(1,0,0,1,0,0)"><svg width="395.52000000000004" viewBox="5.76 -41.94 313.77 42.43" height="53.48274799657668" data-palette-color="url(#610616cb-b64e-4195-a7f9-e3495b9602d4)"></svg></g></svg></g></svg></g></svg></g><g transform="matrix(1,0,0,1,408.14599321603987,0)"><svg viewBox="0 0 111.32562024671577 73.91315773126897" height="73.91315773126897" width="111.32562024671577"><g><svg version="1.1" xmlns="http://www.w3.org/2000/svg" xmlns:xlink="http://www.w3.org/1999/xlink" x="0" y="0" viewBox="0 0 99.99900060978364 66.393" enable-background="new 0 0 100 66.394" xml:space="preserve" width="111.32562024671577" height="73.91315773126897" class="icon-icon-0" data-fill-palette-color="accent" id="icon-0"></svg></g></svg></g></svg></g><defs></defs><mask id="54e1c19b-3b56-437e-852b-459355b2cf83"><g id="SvgjsG1274"><svg viewBox="0 0 395.52 56.27666919275752" height="56.27666919275752" width="395.52"><g><svg viewBox="0 0 519.4716134627556 73.91315773126897" height="56.27666919275752" width="395.52"><g transform="matrix(1,0,0,1,0,10.215204867346145)"><svg viewBox="0 0 395.52000000000004 53.48274799657668" height="53.48274799657668" width="395.52000000000004"><g id="SvgjsG1273"><svg viewBox="0 0 395.52000000000004 53.48274799657668" height="53.48274799657668" width="395.52000000000004" id="SvgjsSvg1272"><g><svg viewBox="0 0 395.52000000000004 53.48274799657668" height="53.48274799657668" width="395.52000000000004"><g transform="matrix(1,0,0,1,0,0)"><svg width="395.52000000000004" viewBox="5.76 -41.94 313.77 42.43" height="53.48274799657668" data-palette-color="url(#610616cb-b64e-4195-a7f9-e3495b9602d4)"><path d="M20.34-11.72L20.34-11.72Q19.34-11.67 16.83-11.67 14.33-11.67 9.91-12.33L9.91-12.33 9.91 0 5.76 0 5.76-37.21Q12.87-37.87 19.9-37.87L19.9-37.87Q25.81-37.87 28.17-35.21L28.17-35.21Q30.18-32.96 30.18-27.78L30.18-27.78 30.18-24.9Q30.18-20.9 29.3-18.07L29.3-18.07Q27.42-12.16 20.34-11.72ZM20.07-34.35L20.07-34.35Q13.38-34.35 9.91-34.08L9.91-34.08 9.91-15.77Q14.18-15.21 17.52-15.21 20.85-15.21 22.3-15.69 23.75-16.16 24.56-17.29L24.56-17.29Q25.93-19.19 25.93-24.85L25.93-24.85 25.93-27.88Q25.93-31.37 24.56-32.86L24.56-32.86Q23.24-34.35 20.07-34.35ZM52.46-25.76L52.46-25.76Q47.6-25.76 42.82-22.95L42.82-22.95 42.82 0 38.77 0 38.77-41.55 42.72-41.94 42.72-26.05Q45.24-28.2 49.27-29.15L49.27-29.15Q50.88-29.54 53.07-29.54 55.27-29.54 56.93-29.04 58.59-28.54 59.57-27.44L59.57-27.44Q61.33-25.46 61.33-20.24L61.33-20.24 61.33 0 57.22 0 57.22-19.51Q57.22-23.02 56.54-24.04 55.86-25.05 54.92-25.4 53.98-25.76 52.46-25.76ZM71.19-14.45L71.19-14.45Q71.19-20 71.75-22.19 72.31-24.39 73.13-25.67 73.95-26.95 75.34-27.81L75.34-27.81Q78.12-29.54 83.56-29.54L83.56-29.54Q91.43-29.54 93.67-25.66L93.67-25.66Q95.01-23.32 95.21-19.04L95.21-19.04Q95.28-17.02 95.28-14.58 95.28-12.13 95.12-10.02 94.97-7.91 94.5-6.23 94.04-4.54 93.21-3.28 92.38-2.03 91.01-1.17L91.01-1.17Q88.33 0.49 83.17 0.49L83.17 0.49Q75.46 0.49 73.04-3.32L73.04-3.32Q71.55-5.69 71.31-9.96L71.31-9.96Q71.19-12.01 71.19-14.45ZM77.83-4.27Q78.71-3.61 80.04-3.28 81.37-2.95 83.67-2.95 85.98-2.95 87.56-3.61 89.13-4.27 89.92-5.73 90.72-7.18 90.93-9.5 91.13-11.82 91.13-14.89 91.13-17.97 90.95-20.02 90.77-22.07 90.03-23.41L90.03-23.41Q88.57-26.05 83.52-26.05L83.52-26.05Q78.17-26.05 76.56-23.41L76.56-23.41Q75.75-22.07 75.53-20 75.31-17.92 75.31-15.48 75.31-13.04 75.37-11.34 75.43-9.64 75.69-8.29 75.95-6.93 76.45-5.93 76.95-4.93 77.83-4.27ZM118.23-4.57L119.62-1.39Q115.64 0.49 112.27 0.49L112.27 0.49Q106.17 0.49 105.34-4.74L105.34-4.74Q105.14-5.98 105.14-8.35L105.14-8.35 105.14-25.66 101.63-25.66 101.63-28.66 105.14-29.05 105.78-35.69 109.17-35.69 109.17-29.05 117.64-29.05 117.64-25.66 109.17-25.66 109.17-8.42Q109.17-5.42 109.61-4.59L109.61-4.59Q110.42-3.08 112.83-3.08 115.25-3.08 118.23-4.57L118.23-4.57ZM125.31-14.45L125.31-14.45Q125.31-20 125.87-22.19 126.43-24.39 127.25-25.67 128.07-26.95 129.46-27.81L129.46-27.81Q132.24-29.54 137.69-29.54L137.69-29.54Q145.55-29.54 147.79-25.66L147.79-25.66Q149.14-23.32 149.33-19.04L149.33-19.04Q149.4-17.02 149.4-14.58 149.4-12.13 149.25-10.02 149.09-7.91 148.62-6.23 148.16-4.54 147.33-3.28 146.5-2.03 145.13-1.17L145.13-1.17Q142.45 0.49 137.29 0.49L137.29 0.49Q129.58 0.49 127.16-3.32L127.16-3.32Q125.67-5.69 125.43-9.96L125.43-9.96Q125.31-12.01 125.31-14.45ZM131.95-4.27Q132.83-3.61 134.16-3.28 135.49-2.95 137.8-2.95 140.1-2.95 141.68-3.61 143.25-4.27 144.05-5.73 144.84-7.18 145.05-9.5 145.25-11.82 145.25-14.89 145.25-17.97 145.07-20.02 144.89-22.07 144.16-23.41L144.16-23.41Q142.69-26.05 137.64-26.05L137.64-26.05Q132.29-26.05 130.68-23.41L130.68-23.41Q129.87-22.07 129.65-20 129.43-17.92 129.43-15.48 129.43-13.04 129.49-11.34 129.56-9.64 129.81-8.29 130.07-6.93 130.57-5.93 131.07-4.93 131.95-4.27ZM174.33-11.72L174.33-11.72Q173.33-11.67 170.82-11.67 168.32-11.67 163.9-12.33L163.9-12.33 163.9 0 159.75 0 159.75-37.21Q166.86-37.87 173.89-37.87L173.89-37.87Q179.8-37.87 182.17-35.21L182.17-35.21Q184.17-32.96 184.17-27.78L184.17-27.78 184.17-24.9Q184.17-20.9 183.29-18.07L183.29-18.07Q181.41-12.16 174.33-11.72ZM174.06-34.35L174.06-34.35Q167.37-34.35 163.9-34.08L163.9-34.08 163.9-15.77Q168.18-15.21 171.51-15.21 174.84-15.21 176.29-15.69 177.75-16.16 178.55-17.29L178.55-17.29Q179.92-19.19 179.92-24.85L179.92-24.85 179.92-27.88Q179.92-31.37 178.55-32.86L178.55-32.86Q177.23-34.35 174.06-34.35ZM206.45-25.76L206.45-25.76Q201.6-25.76 196.81-22.95L196.81-22.95 196.81 0 192.76 0 192.76-41.55 196.71-41.94 196.71-26.05Q199.23-28.2 203.26-29.15L203.26-29.15Q204.87-29.54 207.07-29.54 209.26-29.54 210.92-29.04 212.58-28.54 213.56-27.44L213.56-27.44Q215.32-25.46 215.32-20.24L215.32-20.24 215.32 0 211.22 0 211.22-19.51Q211.22-23.02 210.53-24.04 209.85-25.05 208.91-25.4 207.97-25.76 206.45-25.76ZM225.18-14.45L225.18-14.45Q225.18-20 225.74-22.19 226.3-24.39 227.12-25.67 227.94-26.95 229.33-27.81L229.33-27.81Q232.11-29.54 237.56-29.54L237.56-29.54Q245.42-29.54 247.66-25.66L247.66-25.66Q249.01-23.32 249.2-19.04L249.2-19.04Q249.27-17.02 249.27-14.58 249.27-12.13 249.12-10.02 248.96-7.91 248.49-6.23 248.03-4.54 247.2-3.28 246.37-2.03 245-1.17L245-1.17Q242.32 0.49 237.17 0.49L237.17 0.49Q229.45 0.49 227.03-3.32L227.03-3.32Q225.54-5.69 225.3-9.96L225.3-9.96Q225.18-12.01 225.18-14.45ZM231.82-4.27Q232.7-3.61 234.03-3.28 235.36-2.95 237.67-2.95 239.97-2.95 241.55-3.61 243.12-4.27 243.92-5.73 244.71-7.18 244.92-9.5 245.12-11.82 245.12-14.89 245.12-17.97 244.94-20.02 244.76-22.07 244.03-23.41L244.03-23.41Q242.56-26.05 237.51-26.05L237.51-26.05Q232.16-26.05 230.55-23.41L230.55-23.41Q229.74-22.07 229.52-20 229.3-17.92 229.3-15.48 229.3-13.04 229.36-11.34 229.43-9.64 229.68-8.29 229.94-6.93 230.44-5.93 230.94-4.93 231.82-4.27ZM269.73-25.51L269.73-25.51Q266.61-25.51 263.36-22.39L263.36-22.39 263.36 0 259.31 0 259.31-29.05 262.87-29.05 263.26-25.2Q264.41-26.98 265.74-27.98 267.07-28.98 267.92-29.2L267.92-29.2Q269.15-29.54 270.24-29.54 271.34-29.54 273-29.1L273-29.1 272.64-25.22Q271.39-25.51 269.73-25.51ZM283.06-36.01L283.06-36.01Q281.42-36.01 280.96-36.47L280.96-36.47Q280.23-37.23 280.23-38.56 280.23-39.89 280.39-40.47 280.54-41.04 280.86-41.36L280.86-41.36Q281.45-41.94 282.66-41.94 283.86-41.94 284.39-41.82 284.91-41.7 285.26-41.36L285.26-41.36Q285.84-40.77 285.84-39.44 285.84-38.11 285.71-37.54 285.57-36.96 285.26-36.62L285.26-36.62Q284.65-36.01 283.06-36.01ZM281.13 0L281.08-29.05 285.08-29.05 285.08 0 281.13 0ZM319.07-19.41L319.07-10.3Q319.07-5.44 319.53-0.2L319.53-0.2 315.92 0.1 315.31-3.3Q312.21-0.81 307.1 0.17L307.1 0.17Q305.44 0.49 304.15 0.49 302.86 0.49 301.87 0.37 300.88 0.24 299.96-0.11 299.05-0.46 298.27-1.1 297.48-1.73 296.9-2.78L296.9-2.78Q295.65-5 295.65-8.12 295.65-11.23 296.11-12.95 296.56-14.67 297.61-15.82L297.61-15.82Q299.68-18.09 304.59-18.09 309.5-18.09 315.06-16.24L315.06-16.24 315.06-19.41Q315.06-24.71 310.69-25.68L310.69-25.68Q309.28-26 307.45-26L307.45-26Q303.27-26 298.78-24.34L298.78-24.34 297.88-27.86Q299.12-28.69 304.22-29.35L304.22-29.35Q305.83-29.54 308.09-29.54 310.35-29.54 312.52-29 314.7-28.47 316.14-27.25L316.14-27.25Q319.07-24.83 319.07-19.41L319.07-19.41ZM314.97-13.18L314.97-13.18Q309.25-14.62 304.42-14.62L304.42-14.62Q301.44-14.62 300.46-12.92L300.46-12.92Q299.8-11.72 299.8-9.38 299.8-7.03 300.06-5.98 300.32-4.93 300.9-4.25L300.9-4.25Q302.05-2.95 304.69-2.95L304.69-2.95Q308.81-2.95 312.87-5.08L312.87-5.08Q314.11-5.71 315.11-6.49L315.11-6.49Q314.97-9.13 314.97-13.18Z" opacity="1" transform="matrix(1,0,0,1,0,0)" fill="white" class="wordmark-text-0" id="SvgjsPath1271"></path></svg></g></svg></g></svg></g></svg></g><g transform="matrix(1,0,0,1,408.14599321603987,0)"><svg viewBox="0 0 111.32562024671577 73.91315773126897" height="73.91315773126897" width="111.32562024671577"><g><svg version="1.1" xmlns="http://www.w3.org/2000/svg" xmlns:xlink="http://www.w3.org/1999/xlink" x="0" y="0" viewBox="0 0 99.99900060978364 66.393" enable-background="new 0 0 100 66.394" xml:space="preserve" width="111.32562024671577" height="73.91315773126897" class="icon-icon-0" data-fill-palette-color="accent" id="SvgjsSvg1270"><path fill="black" d="M96.722 0H3.279C1.229 0 0 1.229 0 3.279v59.836c0 2.049 1.229 3.278 3.279 3.278h93.442c2.05 0 3.278-1.229 3.278-3.278V3.279C100 1.229 98.771 0 96.722 0zM4.918 6.558c0-1.025 0.614-1.64 1.639-1.64h86.886c1.025 0 1.639 0.615 1.639 1.64v53.278c0 0.244-0.037 0.464-0.104 0.659-6.113-6.281-26.457-26.889-30.223-26.889-3.998 0-25.335 23.205-29.583 27.869h-3.725c1.968-2.322 4.827-5.667 8.078-9.368-5.105-4.131-10.122-7.844-11.655-7.844-2.811 0-16.778 12.475-21.891 17.128-0.67-0.195-1.06-0.743-1.06-1.555V6.558z"></path><path fill="black" d="M38.119 16.629c4.612 0 8.352 3.737 8.352 8.349 0 4.612-3.74 8.35-8.352 8.35-4.611 0-8.351-3.738-8.351-8.35C29.769 20.367 33.508 16.629 38.119 16.629z"></path></svg></g></svg></g></svg></g><defs><mask></mask></defs></svg><rect width="395.52" height="56.27666919275752" fill="black" stroke="none" visibility="hidden"></rect></g></mask><linearGradient x1="0" x2="1" y1="0.578" y2="0.595" id="610616cb-b64e-4195-a7f9-e3495b9602d4"><stop stop-color="#6ee2f5" offset="0"></stop><stop stop-color="#6454f0" offset="1"></stop></linearGradient><rect width="395.52" height="56.27666919275752" fill="url(#610616cb-b64e-4195-a7f9-e3495b9602d4)" mask="url(#54e1c19b-3b56-437e-852b-459355b2cf83)" data-fill-palette-color="primary"></rect><mask id="21b33a4f-e2e5-4eec-95df-ad70aca4360f"><g id="SvgjsG1293"><svg viewBox="0 0 395.52 56.27666919275752" height="56.27666919275752" width="395.52"><g><svg viewBox="0 0 519.4716134627556 73.91315773126897" height="56.27666919275752" width="395.52"><g transform="matrix(1,0,0,1,0,10.215204867346145)"><svg viewBox="0 0 395.52000000000004 53.48274799657668" height="53.48274799657668" width="395.52000000000004"><g id="SvgjsG1292"><svg viewBox="0 0 395.52000000000004 53.48274799657668" height="53.48274799657668" width="395.52000000000004" id="SvgjsSvg1291"><g><svg viewBox="0 0 395.52000000000004 53.48274799657668" height="53.48274799657668" width="395.52000000000004"><g transform="matrix(1,0,0,1,0,0)"><svg width="395.52000000000004" viewBox="5.76 -41.94 313.77 42.43" height="53.48274799657668" data-palette-color="url(#610616cb-b64e-4195-a7f9-e3495b9602d4)"></svg></g></svg></g></svg></g></svg></g><g transform="matrix(1,0,0,1,408.14599321603987,0)"><svg viewBox="0 0 111.32562024671577 73.91315773126897" height="73.91315773126897" width="111.32562024671577"><g><svg version="1.1" xmlns="http://www.w3.org/2000/svg" xmlns:xlink="http://www.w3.org/1999/xlink" x="0" y="0" viewBox="0 0 99.99900060978364 66.393" enable-background="new 0 0 100 66.394" xml:space="preserve" width="111.32562024671577" height="73.91315773126897" class="icon-icon-0" data-fill-palette-color="accent" id="SvgjsSvg1290"><path fill="white" d="M96.722 0H3.279C1.229 0 0 1.229 0 3.279v59.836c0 2.049 1.229 3.278 3.279 3.278h93.442c2.05 0 3.278-1.229 3.278-3.278V3.279C100 1.229 98.771 0 96.722 0zM4.918 6.558c0-1.025 0.614-1.64 1.639-1.64h86.886c1.025 0 1.639 0.615 1.639 1.64v53.278c0 0.244-0.037 0.464-0.104 0.659-6.113-6.281-26.457-26.889-30.223-26.889-3.998 0-25.335 23.205-29.583 27.869h-3.725c1.968-2.322 4.827-5.667 8.078-9.368-5.105-4.131-10.122-7.844-11.655-7.844-2.811 0-16.778 12.475-21.891 17.128-0.67-0.195-1.06-0.743-1.06-1.555V6.558z"></path><path fill="white" d="M38.119 16.629c4.612 0 8.352 3.737 8.352 8.349 0 4.612-3.74 8.35-8.352 8.35-4.611 0-8.351-3.738-8.351-8.35C29.769 20.367 33.508 16.629 38.119 16.629z"></path></svg></g></svg></g></svg></g><defs><mask></mask></defs><mask><g id="SvgjsG1289"><svg viewBox="0 0 395.52 56.27666919275752" height="56.27666919275752" width="395.52"><g><svg viewBox="0 0 519.4716134627556 73.91315773126897" height="56.27666919275752" width="395.52"><g transform="matrix(1,0,0,1,0,10.215204867346145)"><svg viewBox="0 0 395.52000000000004 53.48274799657668" height="53.48274799657668" width="395.52000000000004"><g id="SvgjsG1288"><svg viewBox="0 0 395.52000000000004 53.48274799657668" height="53.48274799657668" width="395.52000000000004" id="SvgjsSvg1287"><g><svg viewBox="0 0 395.52000000000004 53.48274799657668" height="53.48274799657668" width="395.52000000000004"><g transform="matrix(1,0,0,1,0,0)"><svg width="395.52000000000004" viewBox="5.76 -41.94 313.77 42.43" height="53.48274799657668" data-palette-color="url(#610616cb-b64e-4195-a7f9-e3495b9602d4)"><path d="M20.34-11.72L20.34-11.72Q19.34-11.67 16.83-11.67 14.33-11.67 9.91-12.33L9.91-12.33 9.91 0 5.76 0 5.76-37.21Q12.87-37.87 19.9-37.87L19.9-37.87Q25.81-37.87 28.17-35.21L28.17-35.21Q30.18-32.96 30.18-27.78L30.18-27.78 30.18-24.9Q30.18-20.9 29.3-18.07L29.3-18.07Q27.42-12.16 20.34-11.72ZM20.07-34.35L20.07-34.35Q13.38-34.35 9.91-34.08L9.91-34.08 9.91-15.77Q14.18-15.21 17.52-15.21 20.85-15.21 22.3-15.69 23.75-16.16 24.56-17.29L24.56-17.29Q25.93-19.19 25.93-24.85L25.93-24.85 25.93-27.88Q25.93-31.37 24.56-32.86L24.56-32.86Q23.24-34.35 20.07-34.35ZM52.46-25.76L52.46-25.76Q47.6-25.76 42.82-22.95L42.82-22.95 42.82 0 38.77 0 38.77-41.55 42.72-41.94 42.72-26.05Q45.24-28.2 49.27-29.15L49.27-29.15Q50.88-29.54 53.07-29.54 55.27-29.54 56.93-29.04 58.59-28.54 59.57-27.44L59.57-27.44Q61.33-25.46 61.33-20.24L61.33-20.24 61.33 0 57.22 0 57.22-19.51Q57.22-23.02 56.54-24.04 55.86-25.05 54.92-25.4 53.98-25.76 52.46-25.76ZM71.19-14.45L71.19-14.45Q71.19-20 71.75-22.19 72.31-24.39 73.13-25.67 73.95-26.95 75.34-27.81L75.34-27.81Q78.12-29.54 83.56-29.54L83.56-29.54Q91.43-29.54 93.67-25.66L93.67-25.66Q95.01-23.32 95.21-19.04L95.21-19.04Q95.28-17.02 95.28-14.58 95.28-12.13 95.12-10.02 94.97-7.91 94.5-6.23 94.04-4.54 93.21-3.28 92.38-2.03 91.01-1.17L91.01-1.17Q88.33 0.49 83.17 0.49L83.17 0.49Q75.46 0.49 73.04-3.32L73.04-3.32Q71.55-5.69 71.31-9.96L71.31-9.96Q71.19-12.01 71.19-14.45ZM77.83-4.27Q78.71-3.61 80.04-3.28 81.37-2.95 83.67-2.95 85.98-2.95 87.56-3.61 89.13-4.27 89.92-5.73 90.72-7.18 90.93-9.5 91.13-11.82 91.13-14.89 91.13-17.97 90.95-20.02 90.77-22.07 90.03-23.41L90.03-23.41Q88.57-26.05 83.52-26.05L83.52-26.05Q78.17-26.05 76.56-23.41L76.56-23.41Q75.75-22.07 75.53-20 75.31-17.92 75.31-15.48 75.31-13.04 75.37-11.34 75.43-9.64 75.69-8.29 75.95-6.93 76.45-5.93 76.95-4.93 77.83-4.27ZM118.23-4.57L119.62-1.39Q115.64 0.49 112.27 0.49L112.27 0.49Q106.17 0.49 105.34-4.74L105.34-4.74Q105.14-5.98 105.14-8.35L105.14-8.35 105.14-25.66 101.63-25.66 101.63-28.66 105.14-29.05 105.78-35.69 109.17-35.69 109.17-29.05 117.64-29.05 117.64-25.66 109.17-25.66 109.17-8.42Q109.17-5.42 109.61-4.59L109.61-4.59Q110.42-3.08 112.83-3.08 115.25-3.08 118.23-4.57L118.23-4.57ZM125.31-14.45L125.31-14.45Q125.31-20 125.87-22.19 126.43-24.39 127.25-25.67 128.07-26.95 129.46-27.81L129.46-27.81Q132.24-29.54 137.69-29.54L137.69-29.54Q145.55-29.54 147.79-25.66L147.79-25.66Q149.14-23.32 149.33-19.04L149.33-19.04Q149.4-17.02 149.4-14.58 149.4-12.13 149.25-10.02 149.09-7.91 148.62-6.23 148.16-4.54 147.33-3.28 146.5-2.03 145.13-1.17L145.13-1.17Q142.45 0.49 137.29 0.49L137.29 0.49Q129.58 0.49 127.16-3.32L127.16-3.32Q125.67-5.69 125.43-9.96L125.43-9.96Q125.31-12.01 125.31-14.45ZM131.95-4.27Q132.83-3.61 134.16-3.28 135.49-2.95 137.8-2.95 140.1-2.95 141.68-3.61 143.25-4.27 144.05-5.73 144.84-7.18 145.05-9.5 145.25-11.82 145.25-14.89 145.25-17.97 145.07-20.02 144.89-22.07 144.16-23.41L144.16-23.41Q142.69-26.05 137.64-26.05L137.64-26.05Q132.29-26.05 130.68-23.41L130.68-23.41Q129.87-22.07 129.65-20 129.43-17.92 129.43-15.48 129.43-13.04 129.49-11.34 129.56-9.64 129.81-8.29 130.07-6.93 130.57-5.93 131.07-4.93 131.95-4.27ZM174.33-11.72L174.33-11.72Q173.33-11.67 170.82-11.67 168.32-11.67 163.9-12.33L163.9-12.33 163.9 0 159.75 0 159.75-37.21Q166.86-37.87 173.89-37.87L173.89-37.87Q179.8-37.87 182.17-35.21L182.17-35.21Q184.17-32.96 184.17-27.78L184.17-27.78 184.17-24.9Q184.17-20.9 183.29-18.07L183.29-18.07Q181.41-12.16 174.33-11.72ZM174.06-34.35L174.06-34.35Q167.37-34.35 163.9-34.08L163.9-34.08 163.9-15.77Q168.18-15.21 171.51-15.21 174.84-15.21 176.29-15.69 177.75-16.16 178.55-17.29L178.55-17.29Q179.92-19.19 179.92-24.85L179.92-24.85 179.92-27.88Q179.92-31.37 178.55-32.86L178.55-32.86Q177.23-34.35 174.06-34.35ZM206.45-25.76L206.45-25.76Q201.6-25.76 196.81-22.95L196.81-22.95 196.81 0 192.76 0 192.76-41.55 196.71-41.94 196.71-26.05Q199.23-28.2 203.26-29.15L203.26-29.15Q204.87-29.54 207.07-29.54 209.26-29.54 210.92-29.04 212.58-28.54 213.56-27.44L213.56-27.44Q215.32-25.46 215.32-20.24L215.32-20.24 215.32 0 211.22 0 211.22-19.51Q211.22-23.02 210.53-24.04 209.85-25.05 208.91-25.4 207.97-25.76 206.45-25.76ZM225.18-14.45L225.18-14.45Q225.18-20 225.74-22.19 226.3-24.39 227.12-25.67 227.94-26.95 229.33-27.81L229.33-27.81Q232.11-29.54 237.56-29.54L237.56-29.54Q245.42-29.54 247.66-25.66L247.66-25.66Q249.01-23.32 249.2-19.04L249.2-19.04Q249.27-17.02 249.27-14.58 249.27-12.13 249.12-10.02 248.96-7.91 248.49-6.23 248.03-4.54 247.2-3.28 246.37-2.03 245-1.17L245-1.17Q242.32 0.49 237.17 0.49L237.17 0.49Q229.45 0.49 227.03-3.32L227.03-3.32Q225.54-5.69 225.3-9.96L225.3-9.96Q225.18-12.01 225.18-14.45ZM231.82-4.27Q232.7-3.61 234.03-3.28 235.36-2.95 237.67-2.95 239.97-2.95 241.55-3.61 243.12-4.27 243.92-5.73 244.71-7.18 244.92-9.5 245.12-11.82 245.12-14.89 245.12-17.97 244.94-20.02 244.76-22.07 244.03-23.41L244.03-23.41Q242.56-26.05 237.51-26.05L237.51-26.05Q232.16-26.05 230.55-23.41L230.55-23.41Q229.74-22.07 229.52-20 229.3-17.92 229.3-15.48 229.3-13.04 229.36-11.34 229.43-9.64 229.68-8.29 229.94-6.93 230.44-5.93 230.94-4.93 231.82-4.27ZM269.73-25.51L269.73-25.51Q266.61-25.51 263.36-22.39L263.36-22.39 263.36 0 259.31 0 259.31-29.05 262.87-29.05 263.26-25.2Q264.41-26.98 265.74-27.98 267.07-28.98 267.92-29.2L267.92-29.2Q269.15-29.54 270.24-29.54 271.34-29.54 273-29.1L273-29.1 272.64-25.22Q271.39-25.51 269.73-25.51ZM283.06-36.01L283.06-36.01Q281.42-36.01 280.96-36.47L280.96-36.47Q280.23-37.23 280.23-38.56 280.23-39.89 280.39-40.47 280.54-41.04 280.86-41.36L280.86-41.36Q281.45-41.94 282.66-41.94 283.86-41.94 284.39-41.82 284.91-41.7 285.26-41.36L285.26-41.36Q285.84-40.77 285.84-39.44 285.84-38.11 285.71-37.54 285.57-36.96 285.26-36.62L285.26-36.62Q284.65-36.01 283.06-36.01ZM281.13 0L281.08-29.05 285.08-29.05 285.08 0 281.13 0ZM319.07-19.41L319.07-10.3Q319.07-5.44 319.53-0.2L319.53-0.2 315.92 0.1 315.31-3.3Q312.21-0.81 307.1 0.17L307.1 0.17Q305.44 0.49 304.15 0.49 302.86 0.49 301.87 0.37 300.88 0.24 299.96-0.11 299.05-0.46 298.27-1.1 297.48-1.73 296.9-2.78L296.9-2.78Q295.65-5 295.65-8.12 295.65-11.23 296.11-12.95 296.56-14.67 297.61-15.82L297.61-15.82Q299.68-18.09 304.59-18.09 309.5-18.09 315.06-16.24L315.06-16.24 315.06-19.41Q315.06-24.71 310.69-25.68L310.69-25.68Q309.28-26 307.45-26L307.45-26Q303.27-26 298.78-24.34L298.78-24.34 297.88-27.86Q299.12-28.69 304.22-29.35L304.22-29.35Q305.83-29.54 308.09-29.54 310.35-29.54 312.52-29 314.7-28.47 316.14-27.25L316.14-27.25Q319.07-24.83 319.07-19.41L319.07-19.41ZM314.97-13.18L314.97-13.18Q309.25-14.62 304.42-14.62L304.42-14.62Q301.44-14.62 300.46-12.92L300.46-12.92Q299.8-11.72 299.8-9.38 299.8-7.03 300.06-5.98 300.32-4.93 300.9-4.25L300.9-4.25Q302.05-2.95 304.69-2.95L304.69-2.95Q308.81-2.95 312.87-5.08L312.87-5.08Q314.11-5.71 315.11-6.49L315.11-6.49Q314.97-9.13 314.97-13.18Z" opacity="1" transform="matrix(1,0,0,1,0,0)" fill="black" class="wordmark-text-0" id="SvgjsPath1286"></path></svg></g></svg></g></svg></g></svg></g><g transform="matrix(1,0,0,1,408.14599321603987,0)"><svg viewBox="0 0 111.32562024671577 73.91315773126897" height="73.91315773126897" width="111.32562024671577"><g><svg version="1.1" xmlns="http://www.w3.org/2000/svg" xmlns:xlink="http://www.w3.org/1999/xlink" x="0" y="0" viewBox="0 0 99.99900060978364 66.393" enable-background="new 0 0 100 66.394" xml:space="preserve" width="111.32562024671577" height="73.91315773126897" class="icon-icon-0" data-fill-palette-color="accent" id="SvgjsSvg1285"><path fill="black" d="M96.722 0H3.279C1.229 0 0 1.229 0 3.279v59.836c0 2.049 1.229 3.278 3.279 3.278h93.442c2.05 0 3.278-1.229 3.278-3.278V3.279C100 1.229 98.771 0 96.722 0zM4.918 6.558c0-1.025 0.614-1.64 1.639-1.64h86.886c1.025 0 1.639 0.615 1.639 1.64v53.278c0 0.244-0.037 0.464-0.104 0.659-6.113-6.281-26.457-26.889-30.223-26.889-3.998 0-25.335 23.205-29.583 27.869h-3.725c1.968-2.322 4.827-5.667 8.078-9.368-5.105-4.131-10.122-7.844-11.655-7.844-2.811 0-16.778 12.475-21.891 17.128-0.67-0.195-1.06-0.743-1.06-1.555V6.558z"></path><path fill="black" d="M38.119 16.629c4.612 0 8.352 3.737 8.352 8.349 0 4.612-3.74 8.35-8.352 8.35-4.611 0-8.351-3.738-8.351-8.35C29.769 20.367 33.508 16.629 38.119 16.629z"></path></svg></g></svg></g></svg></g><defs><mask></mask></defs></svg><rect width="395.52" height="56.27666919275752" fill="black" stroke="none" visibility="hidden"></rect></g></mask></svg><rect width="395.52" height="56.27666919275752" fill="black" stroke="none" visibility="hidden"></rect></g></mask><linearGradient x1="0" x2="1" y1="0.578" y2="0.595" id="99174cb0-2b54-476d-9050-1e86813f3727"><stop stop-color="#6ee2f5" offset="0"></stop><stop stop-color="#6454f0" offset="1"></stop></linearGradient><rect width="395.52" height="56.27666919275752" fill="url(#99174cb0-2b54-476d-9050-1e86813f3727)" mask="url(#21b33a4f-e2e5-4eec-95df-ad70aca4360f)" data-fill-palette-color="accent"></rect></svg><rect width="395.52" height="56.27666919275752" fill="none" stroke="none" visibility="hidden"></rect></g></svg></g></svg>